<svg width="100" height="22" viewBox="0 0 100 22" xmlns="http://www.w3.org/2000/svg"><title>Logo</title><g fill="#414B82" fill-rule="evenodd"><path d="M6.458 13.572c0-.294-.158-.556-.474-.788-.315-.232-.89-.44-1.723-.624-1.313-.271-2.303-.695-2.97-1.268-.666-.573-1-1.357-1-2.35 0-1.05.418-1.942 1.25-2.674.834-.73 1.962-1.097 3.387-1.097 1.5 0 2.694.355 3.583 1.065.888.71 1.313 1.626 1.27 2.752l-.02.066H6.344c0-.471-.113-.828-.339-1.071-.226-.242-.588-.364-1.088-.364-.368 0-.677.107-.927.32-.25.214-.376.486-.376.817 0 .316.145.584.433.805.288.22.87.419 1.745.595 1.375.287 2.394.715 3.057 1.285.664.57.995 1.376.995 2.421 0 1.074-.45 1.958-1.35 2.652-.899.695-2.087 1.044-3.566 1.044-1.536 0-2.75-.412-3.641-1.236-.893-.824-1.318-1.743-1.277-2.757l.02-.067H3.22c.014.567.175.974.484 1.224.31.25.748.375 1.319.375.47 0 .83-.098 1.072-.292.243-.195.364-.473.364-.833M17.474.978v4.014h1.905v2.58h-1.905v5.47c0 .427.081.734.244.922.164.187.383.282.662.282.222 0 .397-.008.526-.023.128-.015.293-.044.494-.088l.25 2.758c-.389.095-.739.163-1.052.203a8.68 8.68 0 0 1-1.104.062c-1.16 0-2.038-.329-2.635-.982-.598-.655-.896-1.692-.896-3.111V7.572H12.38v-2.58h1.583V.978h3.51zm-3.511 0h3.51-3.51zM29.762 16.915a4.819 4.819 0 0 1-.266-.64 7.047 7.047 0 0 1-.203-.728 3.981 3.981 0 0 1-1.21 1.175c-.47.29-1.044.436-1.718.436-1.069 0-1.939-.329-2.609-.982-.67-.655-1.004-1.526-1.004-2.614 0-1.184.418-2.098 1.254-2.741.837-.644 2.109-.965 3.817-.965h1.282v-.85c0-.507-.113-.897-.338-1.169-.226-.272-.575-.408-1.046-.408-.404 0-.705.102-.902.303-.198.203-.296.517-.296.943l-3.407-.01-.022-.066c-.048-1.089.379-1.999 1.282-2.73.903-.732 2.097-1.098 3.584-1.098 1.388 0 2.516.368 3.38 1.103.864.735 1.297 1.787 1.297 3.154v4.5c0 .64.05 1.232.151 1.776.1.544.251 1.084.453 1.621l-3.48-.01zm-2.323-2.417a2.1 2.1 0 0 0 .958-.22c.292-.147.528-.337.708-.573v-1.864h-1.25c-.556 0-.96.143-1.213.43-.254.286-.38.65-.38 1.092 0 .338.109.612.328.821.218.21.502.314.849.314zM39.79 4.992l.125 1.577c.354-.574.8-1.017 1.338-1.33.538-.311 1.155-.468 1.85-.468.7 0 1.305.161 1.811.485.508.324.89.816 1.147 1.478.347-.625.793-1.109 1.338-1.45.546-.342 1.183-.513 1.912-.513 1.097 0 1.96.4 2.588 1.197.63.798.944 2.027.944 3.688v7.27H49.31v-7.27c0-.771-.113-1.3-.339-1.587-.225-.287-.564-.43-1.015-.43-.34 0-.64.064-.9.192-.261.13-.483.307-.663.535 0 .126.004.235.011.326.007.092.01.182.01.27v7.963h-3.521V9.656c0-.771-.111-1.3-.333-1.587-.223-.287-.567-.43-1.032-.43a1.94 1.94 0 0 0-.869.192c-.26.13-.481.307-.661.535v8.56h-3.521V4.991h3.312M66.712 11.212c0 1.794-.382 3.233-1.146 4.318-.764 1.085-1.84 1.628-3.23 1.628-.542 0-1.023-.112-1.443-.332-.42-.22-.786-.54-1.098-.96v5.046h-3.521V4.992h3.292l.125 1.312c.319-.492.693-.871 1.125-1.136.43-.264.93-.397 1.5-.397 1.396 0 2.477.57 3.245 1.709.767 1.14 1.151 2.64 1.151 4.5v.232zm-3.51-.231c0-1.007-.14-1.816-.417-2.427-.278-.61-.723-.915-1.334-.915-.397 0-.73.077-1.005.231a1.657 1.657 0 0 0-.651.673v4.985c.167.257.387.448.661.574.275.125.613.187 1.016.187.618 0 1.061-.27 1.329-.81.266-.541.4-1.296.4-2.267v-.231zM69.55.972h3.532v15.953H69.55V.972zM83.267 16.915a4.82 4.82 0 0 1-.266-.64 7.048 7.048 0 0 1-.203-.728 3.98 3.98 0 0 1-1.209 1.175c-.471.29-1.045.436-1.718.436-1.07 0-1.94-.329-2.61-.982-.67-.655-1.004-1.526-1.004-2.614 0-1.184.418-2.098 1.254-2.741.837-.644 2.11-.965 3.818-.965h1.282v-.85c0-.507-.114-.897-.339-1.169-.225-.272-.575-.408-1.046-.408-.404 0-.704.102-.902.303-.198.203-.296.517-.296.943l-3.407-.01-.021-.066c-.048-1.089.378-1.999 1.281-2.73.903-.732 2.097-1.098 3.585-1.098 1.388 0 2.515.368 3.379 1.103.864.735 1.297 1.787 1.297 3.154v4.5c0 .64.05 1.232.151 1.776.1.544.251 1.084.454 1.621l-3.48-.01zm-2.323-2.417a2.101 2.101 0 0 0 1.667-.793v-1.864h-1.25c-.557 0-.96.143-1.214.43-.254.286-.38.65-.38 1.092 0 .338.109.612.328.821.219.21.502.314.85.314zM94.097 11.664l.01.088h.064l1.863-6.76h3.751l-4.313 13.163c-.346.882-.795 1.61-1.343 2.184-.549.574-1.42.86-2.615.86-.306 0-.555-.02-.75-.06-.195-.04-.5-.115-.917-.225l.427-2.648.22.05c.048.01.11.016.187.016.556 0 .961-.087 1.218-.26.258-.175.448-.436.573-.783l.095-.26L88.68 4.992h3.738l1.678 6.672"/></g></svg>