<?xml version="1.0" standalone="no"?>
<!DOCTYPE svg PUBLIC "-//W3C//DTD SVG 20010904//EN"
 "http://www.w3.org/TR/2001/REC-SVG-20010904/DTD/svg10.dtd">
<svg version="1.0" xmlns="http://www.w3.org/2000/svg"
 width="1800.000000pt" height="1800.000000pt" viewBox="0 0 1800.000000 1800.000000"
 preserveAspectRatio="xMidYMid meet">
<metadata>
Created by potrace 1.11, written by Peter Selinger 2001-2013
</metadata>
<g transform="translate(0.000000,1800.000000) scale(0.100000,-0.100000)"
fill="#000000" stroke="none">
<path d="M3650 12275 l-2374 -2374 20 -22 c26 -29 4098 -4101 4116 -4116 11
-10 13 24 13 228 l-1 239 -1833 1834 -1834 1834 2135 2135 2135 2135 1679
-1679 1678 -1678 -34 -37 c-19 -20 -170 -171 -334 -336 l-300 -299 -1342 1342
c-1223 1223 -1344 1341 -1360 1328 -21 -17 -2884 -2880 -2901 -2900 -10 -12
234 -261 1451 -1478 l1463 -1463 1341 1341 c737 738 1344 1341 1349 1341 11 0
663 -653 663 -663 0 -5 -463 -472 -1029 -1038 l-1029 -1029 241 0 242 0 912
912 913 913 888 -888 887 -887 0 240 0 240 -768 768 -767 767 335 335 335 335
428 -428 c235 -235 429 -427 432 -427 3 0 5 107 5 237 l0 238 -312 311 -312
310 312 312 312 312 313 -312 312 -313 207 2 c115 1 222 2 238 2 28 1 -16 48
-521 552 l-551 550 -432 -431 -432 -432 -335 336 -335 336 765 765 c420 421
767 765 769 765 3 0 554 -550 1226 -1221 l1221 -1222 213 1 c116 0 225 1 241
1 25 1 -137 166 -1431 1461 -803 803 -1464 1460 -1469 1460 -5 0 -407 -398
-893 -884 l-884 -884 -1787 1787 c-983 982 -1794 1792 -1802 1798 -11 10 -440
-414 -2388 -2362z m3605 -1155 l1220 -1220 -1225 -1224 -1225 -1224 -1223
1222 -1223 1223 1221 1221 c672 672 1225 1222 1229 1222 3 0 555 -549 1226
-1220z m3035 -1223 c0 -5 -149 -158 -331 -340 l-331 -330 -335 335 -336 336
334 335 334 335 333 -331 c182 -183 332 -336 332 -340z"/>
<path d="M5477 10452 c-301 -301 -547 -550 -547 -554 0 -9 1090 -1098 1098
-1098 4 0 254 247 555 548 l548 549 -551 551 c-304 304 -553 552 -554 552 0 0
-247 -246 -549 -548z m880 -261 l294 -295 -308 -308 c-169 -169 -311 -308
-314 -308 -8 0 -619 610 -619 618 0 4 138 145 307 314 296 295 308 306 327
290 10 -9 151 -149 313 -311z"/>
<path d="M12167 9125 c-6 -20 0 -1391 7 -1435 48 -314 156 -509 359 -649 91
-62 248 -122 358 -136 30 -4 58 -9 62 -12 4 -3 79 -5 165 -5 383 1 654 124
816 372 68 104 126 261 141 380 3 25 8 63 12 85 8 50 11 1374 4 1395 -5 13
-41 15 -243 15 -131 0 -239 -2 -239 -5 -1 -3 -3 -313 -4 -690 -2 -377 -5 -694
-8 -705 -3 -11 -11 -42 -18 -70 -18 -73 -55 -141 -105 -195 -40 -43 -121 -96
-161 -105 -10 -3 -36 -9 -58 -15 -54 -14 -189 -14 -250 0 -170 38 -286 159
-332 347 -14 59 -16 154 -18 743 -2 371 -3 680 -4 685 -1 14 -479 14 -484 0z"/>
<path d="M14862 9130 c-4 -3 -8 -501 -7 -1108 l0 -1102 245 2 245 3 0 328 c0
320 0 327 20 328 11 0 126 1 255 3 159 3 263 9 320 19 427 80 675 370 664 777
-3 119 -7 149 -30 229 -53 183 -185 341 -359 428 -58 29 -183 71 -235 78 -25
3 -58 9 -75 12 -38 7 -1033 10 -1043 3z m896 -441 c153 -4 272 -73 323 -185
26 -56 28 -72 26 -156 -2 -83 -5 -99 -33 -148 -17 -30 -54 -74 -82 -97 -84
-69 -121 -76 -402 -81 l-245 -4 0 336 0 335 45 3 c44 3 225 2 368 -3z"/>
<path d="M10599 6186 c-2 -2 -26 -7 -54 -10 -82 -11 -185 -45 -264 -87 -255
-137 -372 -374 -336 -684 13 -109 66 -227 133 -298 56 -59 236 -169 299 -182
10 -2 38 -11 63 -20 46 -17 205 -62 250 -71 105 -22 294 -94 350 -135 53 -39
69 -65 73 -126 10 -133 -97 -218 -286 -226 -205 -10 -411 61 -620 214 -66 48
-70 50 -86 32 -9 -10 -74 -87 -145 -172 l-129 -154 34 -29 c119 -100 302 -201
454 -251 163 -54 276 -72 450 -71 142 0 214 9 320 39 350 102 532 377 491 744
-30 270 -218 435 -626 551 -58 17 -114 32 -125 34 -116 24 -302 94 -351 131
-66 50 -87 138 -53 215 23 51 36 63 107 97 43 20 71 26 140 27 165 4 326 -47
515 -166 43 -27 80 -48 81 -46 29 36 246 358 246 364 0 10 -110 87 -175 124
-98 56 -260 114 -380 136 -16 3 -41 8 -55 10 -31 6 -316 14 -321 10z"/>
<path d="M12261 6155 c-4 -5 -7 -503 -7 -1105 l1 -1095 843 -1 c463 -1 842 1
843 5 0 3 1 101 1 216 l1 210 -584 2 c-321 2 -592 3 -601 3 -17 0 -18 18 -18
230 l0 230 522 2 521 3 1 212 c1 134 -3 214 -9 216 -5 2 -241 3 -522 3 l-513
-1 0 222 0 223 593 0 592 0 0 218 0 217 -828 0 c-547 0 -831 -3 -836 -10z"/>
<path d="M6189 6106 c-6 -589 -2 -2156 6 -2157 6 -1 115 -2 243 -3 201 -1 232
1 233 14 1 8 3 164 4 345 1 182 3 335 4 340 1 6 58 9 153 8 84 -1 169 -3 189
-3 l35 0 234 -350 c128 -192 236 -351 239 -351 29 -7 561 -2 561 4 0 8 -255
386 -447 662 -40 58 -73 108 -73 113 0 5 24 19 53 32 185 82 334 252 381 435
24 94 26 113 27 225 3 393 -218 648 -631 725 -19 4 -299 8 -622 10 l-588 3 -1
-52z m1104 -405 c106 -25 181 -83 219 -169 31 -67 31 -198 1 -264 -42 -91
-139 -159 -254 -177 -28 -5 -171 -8 -318 -7 l-266 1 0 310 c-1 171 3 312 7
315 14 11 563 3 611 -9z"/>
<path d="M8709 6141 c0 -22 0 -2129 0 -2166 l1 -30 243 0 242 0 0 1105 0 1105
-242 1 c-215 0 -243 -1 -244 -15z"/>
</g>
</svg>
